<svg version="1.0" xmlns="http://www.w3.org/2000/svg"
 width="19" height="19" viewBox="0 0 1280.000000 807.000000"
 preserveAspectRatio="xMidYMid meet">

<g transform="translate(0.000000,750.000000) scale(0.100000,-0.100000)"
fill="#3852F7" stroke="none">
<path d="M6205 7576 c-137 -26 -278 -83 -401 -162 -83 -53 -170 -140 -463
-459 -382 -416 -810 -885 -911 -995 -48 -52 -192 -210 -321 -350 -129 -141
-398 -435 -599 -655 -201 -219 -493 -539 -650 -710 -157 -171 -449 -490 -650
-710 -201 -219 -493 -539 -650 -710 -157 -171 -449 -490 -650 -710 -201 -219
-454 -496 -563 -614 l-198 -216 48 -45 c61 -56 114 -105 278 -255 72 -65 150
-137 175 -160 112 -102 315 -288 405 -370 95 -86 163 -149 286 -263 l56 -52
54 57 c30 31 83 89 119 128 66 70 96 103 270 294 52 58 106 116 119 130 13 14
62 68 110 120 47 52 93 102 101 111 14 15 111 121 324 354 50 55 102 111 115
125 13 14 62 69 110 121 47 52 115 126 151 165 36 38 90 97 120 130 55 60 228
249 265 291 144 157 211 230 265 289 36 39 90 97 120 130 55 60 228 249 265
291 144 157 211 230 265 289 36 39 90 97 120 130 55 60 228 249 265 291 144
157 211 230 265 289 36 39 90 97 120 130 55 60 228 249 265 291 144 157 211
230 265 289 36 39 90 97 120 130 55 60 228 249 265 291 55 60 212 231 311 339
61 66 135 148 165 182 30 34 59 62 65 62 10 1 268 -276 753 -809 63 -69 133
-145 156 -170 49 -53 362 -394 875 -955 201 -219 516 -564 700 -765 184 -201
502 -548 705 -770 204 -222 498 -544 654 -715 157 -170 330 -359 385 -420 55
-60 121 -132 147 -160 64 -70 503 -548 566 -619 29 -31 59 -56 67 -54 13 3
184 157 646 582 41 38 95 88 120 110 25 23 143 131 263 241 l217 199 -32 35
c-18 20 -35 38 -38 41 -3 3 -50 55 -105 115 -54 61 -129 142 -165 180 -55 59
-118 128 -265 289 -11 12 -61 67 -111 122 -50 54 -144 158 -209 229 -165 181
-298 326 -376 409 -36 39 -160 174 -275 301 -115 126 -216 237 -224 245 -13
14 -155 169 -215 234 -71 79 -416 456 -440 482 -5 6 -50 55 -100 109 -49 54
-97 105 -106 114 -8 9 -132 144 -275 301 -142 157 -266 292 -274 300 -8 9 -54
59 -101 111 -48 52 -97 106 -110 120 -13 14 -67 72 -119 130 -179 196 -205
224 -270 294 -36 39 -90 97 -120 131 -30 33 -98 107 -150 163 -52 57 -102 111
-110 121 -15 17 -147 163 -255 280 -33 36 -105 114 -160 174 -55 61 -130 141
-166 180 -36 39 -137 150 -224 246 -87 96 -188 207 -224 245 -36 39 -122 131
-191 205 -202 217 -349 310 -580 372 -98 26 -353 34 -455 14z"/>
</g>
</svg>
