<svg width="138" height="24" viewBox="0 0 138 24" fill="none" xmlns="http://www.w3.org/2000/svg">
<path fill-rule="evenodd" clip-rule="evenodd" d="M6.94836 14.9001H10.7854L8.89986 7.29229L6.94836 14.9001ZM0.0147982 23.9461L6.62297 0H11.2802L17.9373 24H13.1881L11.8954 19.0332H5.83799L4.57929 24H0L0.0147982 23.9461ZM24.7263 4.33741H23.5101V19.7646H24.7263C26.3567 19.7646 27.6371 19.1639 28.5322 17.9787C29.4998 16.6972 29.9906 14.76 29.9906 12.2211V11.8809C29.9906 9.34193 29.4998 7.4049 28.5322 6.1234C27.6371 4.93818 26.3567 4.33741 24.7263 4.33741ZM18.8665 0.102057H24.7943C31.0409 0.102057 34.7702 4.46719 34.7702 11.7787V12.3232C34.7702 19.6349 31.0409 24 24.7943 24H18.8665V0.102057ZM42.4192 4.37126H40.7608V11.8044H42.5213C44.8723 11.8044 46.2206 10.4435 46.2206 8.07082C46.2206 5.61601 44.9417 4.37126 42.4192 4.37126ZM50.8642 7.83268V8.0368C50.8642 11.0786 49.6101 13.4012 47.2366 14.7562L51.432 24H46.2696L42.6976 15.9375H40.7608V24H36.1172V0.102057H42.8955C45.4217 0.102057 47.4907 0.835674 48.8787 2.22365C50.1777 3.52249 50.8642 5.46225 50.8642 7.83268ZM64.1789 14.1347H57.2392V19.6966H65.2336V24H52.6298V0.102057H65.0974V4.40528H57.2392V9.83129H64.1789V14.1347ZM78.0108 12.9658L71.3096 0.102057H67.0229V24H71.5644V10.5921L78.5258 23.977L78.5378 24H82.5523V0.102057H78.0108V12.9658ZM90.4435 14.9001H94.2805L92.395 7.29229L90.4435 14.9001ZM83.51 23.9461L90.1183 0H94.7753L101.433 24H96.6831L95.3906 19.0332H89.3331L88.0744 24H83.4952L83.51 23.9461ZM102.362 0.102057H107.005V19.6626H113.809V24H102.362V0.102057ZM115.129 24H119.738V0.102057H115.129V24ZM133.114 12.9658V0.102057H137.656V24H133.641L133.629 23.977L126.668 10.5921V24H122.126V0.102057H126.413L126.425 0.124849L133.114 12.9658Z" fill="white"/>
</svg>
